<svg width="44" height="44" viewBox="0 0 44 44" fill="none" xmlns="http://www.w3.org/2000/svg">
<rect width="44" height="44" rx="5" fill="#23224A" fill-opacity="0.6"/>
<path d="M22 9V35" stroke="#505982" stroke-width="2" stroke-linecap="round" stroke-linejoin="round"/>
<path d="M29 17C29 16.3434 28.8707 15.6932 28.6194 15.0866C28.3681 14.48 27.9998 13.9288 27.5355 13.4645C27.0712 13.0002 26.52 12.6319 25.9134 12.3806C25.3068 12.1293 24.6566 12 24 12H19.5C18.1739 12 16.9021 12.5268 15.9645 13.4645C15.0268 14.4021 14.5 15.6739 14.5 17C14.5 18.3261 15.0268 19.5979 15.9645 20.5355C16.9021 21.4732 18.1739 22 19.5 22H25C26.3261 22 27.5979 22.5268 28.5355 23.4645C29.4732 24.4021 30 25.6739 30 27C30 28.3261 29.4732 29.5979 28.5355 30.5355C27.5979 31.4732 26.3261 32 25 32H19C17.6739 32 16.4021 31.4732 15.4645 30.5355C14.5268 29.5979 14 28.3261 14 27" stroke="#505982" stroke-width="2" stroke-linecap="round" stroke-linejoin="round"/>
</svg>
