<svg width="44" height="44" viewBox="0 0 44 44" fill="none" xmlns="http://www.w3.org/2000/svg">
<rect width="44" height="44" rx="5" fill="#23224A" fill-opacity="0.6"/>
<path d="M22.1856 30.0411C22.3757 30.5552 22.7031 31.0075 23.1322 31.3487C23.5613 31.6899 24.0756 31.9071 24.6194 31.9765C25.1632 32.046 25.7157 31.9651 26.2168 31.7428C26.7178 31.5204 27.1484 31.165 27.4617 30.7151C27.775 30.2652 27.9591 29.7381 27.9939 29.191C28.0288 28.6439 27.913 28.0977 27.6593 27.6118C27.4056 27.1258 27.0236 26.7186 26.5548 26.4345C26.0859 26.1503 25.5482 26.0001 25 26H11" stroke="#505982" stroke-width="2" stroke-linecap="round" stroke-linejoin="round"/>
<path d="M18.1856 13.9589C18.3757 13.4447 18.7031 12.9925 19.1322 12.6513C19.5613 12.3101 20.0756 12.0929 20.6194 12.0235C21.1632 11.954 21.7157 12.0348 22.2168 12.2572C22.7178 12.4796 23.1484 12.835 23.4617 13.2849C23.775 13.7348 23.9591 14.2619 23.9939 14.809C24.0288 15.3561 23.913 15.9023 23.6593 16.3882C23.4056 16.8742 23.0236 17.2814 22.5548 17.5655C22.0859 17.8497 21.5482 17.9999 21 18H9" stroke="#505982" stroke-width="2" stroke-linecap="round" stroke-linejoin="round"/>
<path d="M29.1856 17.9589C29.3757 17.4447 29.7031 16.9925 30.1322 16.6513C30.5613 16.3101 31.0756 16.0929 31.6194 16.0235C32.1632 15.954 32.7157 16.0348 33.2168 16.2572C33.7178 16.4796 34.1484 16.835 34.4617 17.2849C34.775 17.7348 34.9591 18.2619 34.9939 18.809C35.0288 19.3561 34.913 19.9023 34.6593 20.3882C34.4056 20.8742 34.0236 21.2814 33.5548 21.5655C33.0859 21.8497 32.5482 21.9999 32 22H10" stroke="#505982" stroke-width="2" stroke-linecap="round" stroke-linejoin="round"/>
</svg>
